<svg xmlns="http://www.w3.org/2000/svg" width="1200" height="675" viewBox="0 0 1200 675" role="img" aria-label="Project preview placeholder">
  <defs>
    <linearGradient id="bg" x1="0" y1="0" x2="1" y2="1">
      <stop offset="0" stop-color="#0f172a"/>
      <stop offset="1" stop-color="#111827"/>
    </linearGradient>
    <linearGradient id="glow" x1="0" y1="0" x2="1" y2="0">
      <stop offset="0" stop-color="#60a5fa" stop-opacity="0.55"/>
      <stop offset="1" stop-color="#60a5fa" stop-opacity="0"/>
    </linearGradient>
  </defs>

  <rect width="1200" height="675" fill="url(#bg)"/>
  <rect x="0" y="0" width="1200" height="6" fill="url(#glow)"/>

  <g opacity="0.18" fill="none" stroke="#ffffff">
    <path d="M-40 140 C 260 80, 440 220, 740 150 S 1160 220, 1280 140" stroke-width="2"/>
    <path d="M-40 240 C 220 190, 520 310, 760 250 S 1140 320, 1280 240" stroke-width="2"/>
    <path d="M-40 340 C 260 280, 520 420, 780 360 S 1160 420, 1280 340" stroke-width="2"/>
    <path d="M-40 440 C 240 390, 520 520, 780 460 S 1140 520, 1280 440" stroke-width="2"/>
  </g>

  <g font-family="ui-monospace, SFMono-Regular, Menlo, Monaco, Consolas, 'Liberation Mono', 'Courier New', monospace" fill="#e5e7eb">
    <text x="64" y="330" font-size="42" font-weight="700" opacity="0.95">Project Preview</text>
    <text x="64" y="378" font-size="20" opacity="0.72">Add a screenshot image in <tspan fill="#60a5fa" opacity="1">assets/projects/</tspan></text>
  </g>
</svg>
